<?xml version="1.0" encoding="utf-8"?>
<!-- Generator: Adobe Illustrator 19.2.0, SVG Export Plug-In . SVG Version: 6.00 Build 0)  -->
<svg version="1.1" id="Warstwa_1" xmlns="http://www.w3.org/2000/svg" xmlns:xlink="http://www.w3.org/1999/xlink" x="0px" y="0px"
	 viewBox="0 0 59.3 49.2" style="enable-background:new 0 0 59.3 49.2;" xml:space="preserve">
<style type="text/css">
	.st0{fill:#08090A;}
	.st1{fill:#FFFFFF;}
	.st2{fill:#010202;}
	.st3{enable-background:new    ;}
</style>
<g id="Grupa_1_1_">
	<g id="Prostokąt_1_kopia_51">
		<g>
			<rect x="14.2" y="37" class="st0" width="1.8" height="1"/>
		</g>
	</g>
	<g id="Prostokąt_1_kopia_52">
		<g>
			<rect x="16.9" y="37" class="st0" width="1.8" height="1"/>
		</g>
	</g>
	<g id="Prostokąt_1_kopia_53">
		<g>
			<rect x="19.6" y="37" class="st0" width="1.8" height="1"/>
		</g>
	</g>
	<g id="Prostokąt_1_kopia_54">
		<g>
			<rect x="22.3" y="37" class="st0" width="1.8" height="1"/>
		</g>
	</g>
	<g id="Prostokąt_1_kopia_55">
		<g>
			<rect x="25" y="37" class="st0" width="1.8" height="1"/>
		</g>
	</g>
	<g id="Prostokąt_1_kopia_56">
		<g>
			<rect x="27.7" y="37" class="st0" width="1.8" height="1"/>
		</g>
	</g>
	<g id="Prostokąt_1_kopia_57">
		<g>
			<rect x="30.4" y="37" class="st0" width="1.8" height="1"/>
		</g>
	</g>
	<g id="Prostokąt_1_kopia_58">
		<g>
			<rect x="33.1" y="37" class="st0" width="1.8" height="1"/>
		</g>
	</g>
	<g id="Prostokąt_1_kopia_59">
		<g>
			<rect x="35.8" y="37" class="st0" width="1.8" height="1"/>
		</g>
	</g>
	<g id="Prostokąt_1_kopia_60">
		<g>
			<rect x="38.5" y="37" class="st0" width="1.8" height="1"/>
		</g>
	</g>
	<g id="Prostokąt_1_kopia_75">
		<g>
			<rect x="44.8" y="40.8" class="st0" width="1.8" height="1"/>
		</g>
	</g>
	<g id="Prostokąt_1_kopia_76">
		<g>
			<rect x="40.3" y="38.9" class="st0" width="1.8" height="1"/>
		</g>
	</g>
	<g id="Prostokąt_1_kopia_77">
		<g>
			<rect x="41.3" y="37" class="st0" width="1.8" height="1"/>
		</g>
	</g>
	<g id="Prostokąt_1_kopia_62">
		<g>
			<rect x="13.2" y="38.9" class="st0" width="1.8" height="1"/>
		</g>
	</g>
	<g id="Prostokąt_1_kopia_63">
		<g>
			<rect x="15.8" y="38.9" class="st0" width="1.8" height="1"/>
		</g>
	</g>
	<g id="Prostokąt_1_kopia_64">
		<g>
			<rect x="18.4" y="38.9" class="st0" width="1.8" height="1"/>
		</g>
	</g>
	<g id="Prostokąt_1_kopia_65">
		<g>
			<rect x="21.3" y="38.9" class="st0" width="1.8" height="1"/>
		</g>
	</g>
	<g id="Prostokąt_1_kopia_66">
		<g>
			<rect x="24" y="38.9" class="st0" width="1.8" height="1"/>
		</g>
	</g>
	<g id="Prostokąt_1_kopia_67">
		<g>
			<rect x="26.7" y="38.9" class="st0" width="1.8" height="1"/>
		</g>
	</g>
	<g id="Prostokąt_1_kopia_68">
		<g>
			<rect x="29.4" y="38.9" class="st0" width="1.8" height="1"/>
		</g>
	</g>
	<g id="Prostokąt_1_kopia_69">
		<g>
			<rect x="32.2" y="38.9" class="st0" width="1.8" height="1"/>
		</g>
	</g>
	<g id="Prostokąt_1_kopia_70">
		<g>
			<rect x="34.9" y="38.9" class="st0" width="1.8" height="1"/>
		</g>
	</g>
	<g id="Prostokąt_1_kopia_71">
		<g>
			<rect x="37.6" y="38.9" class="st0" width="1.8" height="1"/>
		</g>
	</g>
	<g id="Prostokąt_1_kopia_44">
		<g>
			<rect x="34.1" y="40.8" class="st0" width="1.8" height="1"/>
		</g>
	</g>
	<g id="Prostokąt_1_kopia_45">
		<g>
			<rect x="36.7" y="40.8" class="st0" width="1.8" height="1"/>
		</g>
	</g>
	<g id="Prostokąt_1_kopia_46">
		<g>
			<rect x="39.5" y="40.8" class="st0" width="1.8" height="1"/>
		</g>
	</g>
	<g id="Prostokąt_1_kopia_47">
		<g>
			<rect x="42.1" y="40.8" class="st0" width="1.8" height="1"/>
		</g>
	</g>
	<g id="Prostokąt_1_kopia_50">
		<g>
			<rect x="43" y="38.9" class="st0" width="2.7" height="1"/>
		</g>
	</g>
	<g id="Prostokąt_1_kopia_72">
		<g>
			<rect x="43.9" y="38" class="st0" width="1.8" height="1"/>
		</g>
	</g>
	<g id="Prostokąt_1_kopia_48">
		<g>
			<rect x="16.9" y="40.8" class="st0" width="1.8" height="1"/>
		</g>
	</g>
	<g id="Prostokąt_1_kopia_49">
		<g>
			<rect x="12.5" y="40.8" class="st0" width="3.6" height="1"/>
		</g>
	</g>
	<g id="Prostokąt_1_kopia_2">
		<g>
			<rect x="2.6" y="44.7" class="st0" width="0.9" height="1"/>
		</g>
	</g>
	<g id="Prostokąt_1_kopia_6">
		<g>
			<rect x="57.5" y="43.7" class="st0" width="0.9" height="1"/>
		</g>
	</g>
	<g id="Prostokąt_1_kopia_12">
		<g>
			<rect x="56.6" y="44.6" class="st0" width="0.9" height="1"/>
		</g>
	</g>
	<g id="Prostokąt_1_kopia_61">
		<g>
			<rect x="55.7" y="45.6" class="st0" width="0.9" height="1"/>
		</g>
	</g>
	<g id="Prostokąt_1_kopia_73">
		<g>
			<rect x="4.4" y="46.6" class="st0" width="51.3" height="0.9"/>
		</g>
	</g>
	<g id="Warstwa_1_xA0_Obraz_1_">
	</g>
	<g id="Prostokąt_1_kopia_7">
		<g>
			<rect x="3.5" y="45.6" class="st0" width="0.9" height="1"/>
		</g>
	</g>
	<g id="Prostokąt_1_kopia_18">
		<g>
			<rect x="15.2" y="8.5" class="st0" width="0.9" height="1"/>
		</g>
	</g>
	<g id="Prostokąt_1_kopia_26">
		<g>
			<rect x="42.2" y="8.5" class="st0" width="0.9" height="1"/>
		</g>
	</g>
	<g id="Prostokąt_1_kopia_19">
		<g>
			<rect x="16.1" y="7.6" class="st0" width="0.9" height="1"/>
		</g>
	</g>
	<g id="Prostokąt_1_kopia_25">
		<g>
			<rect x="17" y="6.6" class="st0" width="24.3" height="1"/>
		</g>
	</g>
	<g id="Prostokąt_1_kopia_23">
		<g>
			<rect x="14.3" y="9.4" class="st0" width="0.9" height="18.1"/>
		</g>
	</g>
	<g id="Prostokąt_1_kopia_27">
		<g>
			<rect x="43" y="9.3" class="st0" width="0.9" height="18.2"/>
		</g>
	</g>
	<g id="Prostokąt_1_kopia_24">
		<g>
			<rect x="41.3" y="7.6" class="st0" width="0.9" height="1"/>
		</g>
	</g>
	<g id="Prostokąt_1_kopia_20">
		<g>
			<rect x="42.2" y="27.6" class="st0" width="0.9" height="1"/>
		</g>
	</g>
	<g id="Prostokąt_1_kopia_81">
		<g>
			<rect x="42.2" y="28.5" class="st1" width="0.9" height="1"/>
		</g>
	</g>
	<g id="Prostokąt_1_kopia_22">
		<g>
			<rect x="15.1" y="27.5" class="st0" width="0.9" height="1"/>
		</g>
	</g>
	<g id="Prostokąt_1_kopia_39">
		<g>
			<rect x="15.1" y="28.5" class="st1" width="1" height="1"/>
		</g>
	</g>
	<g id="Prostokąt_1_kopia_78">
		<g>
			<rect x="15.1" y="7.5" class="st1" width="1" height="1"/>
		</g>
	</g>
	<g id="Prostokąt_1_kopia_80">
		<g>
			<rect x="42.2" y="7.6" class="st1" width="1" height="1"/>
		</g>
	</g>
	<g id="Prostokąt_1_kopia_30">
		<g>
			<rect x="8" y="35.1" class="st0" width="0.9" height="1"/>
		</g>
	</g>
	<g id="Prostokąt_1_kopia_31">
		<g>
			<rect x="7.1" y="36.1" class="st0" width="0.9" height="1"/>
		</g>
	</g>
	<g id="Prostokąt_1_kopia_32">
		<g>
			<rect x="6.2" y="37.1" class="st0" width="0.9" height="1"/>
		</g>
	</g>
	<g id="Prostokąt_1_kopia_33">
		<g>
			<rect x="5.3" y="38" class="st0" width="0.9" height="1"/>
		</g>
	</g>
	<g id="Prostokąt_1_kopia_38">
		<g>
			<rect x="4.4" y="39" class="st0" width="0.9" height="1"/>
		</g>
	</g>
	<g id="Prostokąt_1_kopia_84">
		<g>
			<rect x="3.5" y="39.9" class="st0" width="0.9" height="1"/>
		</g>
	</g>
	<g id="Prostokąt_1_kopia_85">
		<g>
			<rect x="2.6" y="40.9" class="st0" width="0.9" height="1"/>
		</g>
	</g>
	<g id="Prostokąt_1_kopia_86">
		<g>
			<rect x="1.7" y="41.8" class="st0" width="0.9" height="1"/>
		</g>
	</g>
	<g id="Prostokąt_1_kopia_34">
		<g>
			<rect x="51.1" y="35.2" class="st0" width="0.9" height="1"/>
		</g>
	</g>
	<g id="Prostokąt_1_kopia_35">
		<g>
			<rect x="52.1" y="36.1" class="st0" width="0.9" height="1"/>
		</g>
	</g>
	<g id="Prostokąt_1_kopia_36">
		<g>
			<rect x="53" y="37.1" class="st0" width="0.9" height="1"/>
		</g>
	</g>
	<g id="Prostokąt_1_kopia_37">
		<g>
			<rect x="53.9" y="38" class="st0" width="0.9" height="1"/>
		</g>
	</g>
	<g id="Prostokąt_1_kopia_40">
		<g>
			<rect x="54.8" y="39" class="st0" width="0.9" height="1"/>
		</g>
	</g>
	<g id="Prostokąt_1_kopia_41">
		<g>
			<rect x="55.7" y="39.9" class="st0" width="0.9" height="0.9"/>
		</g>
	</g>
	<g id="Prostokąt_1_kopia_28">
		<g>
			<rect x="41.3" y="28.5" class="st0" width="0.9" height="1"/>
		</g>
	</g>
	<g id="Prostokąt_1_kopia_29">
		<g>
			<rect x="17" y="29.4" class="st0" width="24.3" height="1"/>
		</g>
	</g>
	<g id="Prostokąt_1_kopia_42">
		<g>
			<rect x="19.6" y="40.8" class="st0" width="13.5" height="1"/>
		</g>
	</g>
	<g id="Prostokąt_1_kopia_21">
		<g>
			<rect x="16.1" y="28.5" class="st0" width="0.9" height="1"/>
		</g>
	</g>
	<g id="Prostokąt_1_kopia_16">
		<g>
			<rect x="56.6" y="40.8" class="st0" width="0.9" height="1"/>
		</g>
	</g>
	<g id="Prostokąt_1_kopia_43">
		<g>
			<rect x="57.5" y="41.8" class="st0" width="0.9" height="0.9"/>
		</g>
	</g>
	<g id="Prostokąt_1_kopia_5">
		<g>
			<rect x="1.7" y="43.7" class="st0" width="0.9" height="0.9"/>
		</g>
	</g>
	<g id="Prostokąt_1_kopia_4">
		<g>
			<rect x="47.6" y="5.6" class="st0" width="1.8" height="1"/>
		</g>
	</g>
	<g id="Prostokąt_1_kopia_74">
		<g>
			<rect x="47.6" y="30.4" class="st0" width="1.8" height="1.9"/>
		</g>
	</g>
	<g id="Prostokąt_1_kopia_14">
		<g>
			<rect x="12.5" y="4.6" class="st0" width="0.9" height="27.5"/>
		</g>
	</g>
	<g id="Prostokąt_1_kopia_15">
		<g>
			<rect x="44.9" y="4.6" class="st0" width="0.9" height="27.2"/>
		</g>
	</g>
	<g id="Prostokąt_1_kopia_13">
		<g>
			<rect x="50.4" y="2.1" class="st0" width="0.4" height="32.8"/>
		</g>
		<g>
			<polygon class="st2" points="51.1,1.8 50.2,1.8 50.2,35.2 51.1,35.2 			"/>
		</g>
	</g>
	<g id="Prostokąt_1_kopia_17">
		<g>
			<rect x="8.8" y="1.8" class="st0" width="0.9" height="33.3"/>
		</g>
	</g>
	<g id="Prostokąt_1_kopia_8">
		<g>
			<rect x="9.5" y="1.8" class="st0" width="41.6" height="1"/>
		</g>
	</g>
	<g id="Prostokąt_1_kopia_10">
		<g>
			<rect x="12.5" y="31.3" class="st0" width="33.3" height="1"/>
		</g>
	</g>
	<g id="Prostokąt_1_kopia_11">
		<g>
			<rect x="1.7" y="42.7" class="st0" width="56.7" height="1"/>
		</g>
	</g>
	<g id="Prostokąt_1_kopia_9">
		<g>
			<rect x="12.5" y="4.6" class="st0" width="32.8" height="0.9"/>
		</g>
	</g>
</g>
<g id="Prostokąt_7_1_" class="st3">
	<g id="Prostokąt_7">
		<g>
			<rect x="9.4" y="34.3" class="st0" width="41.6" height="0.7"/>
		</g>
		<g>
			<path class="st2" d="M50.8,34.5v0.4H9.5v-0.4H50.8 M51.1,34.2H9.2v1h41.9V34.2L51.1,34.2z"/>
		</g>
	</g>
</g>
</svg>
