<?xml version="1.0" encoding="utf-8"?>
<!-- Generator: Adobe Illustrator 19.2.0, SVG Export Plug-In . SVG Version: 6.00 Build 0)  -->
<svg version="1.1" id="Layer_1" xmlns="http://www.w3.org/2000/svg" xmlns:xlink="http://www.w3.org/1999/xlink" x="0px" y="0px"
	 viewBox="0 0 984.3 743.1" style="enable-background:new 0 0 984.3 743.1;" xml:space="preserve">
<style type="text/css">
	.st0{fill:#FFFFFF;}
	.st1{fill:#EAEAEA;}
	.st2{fill:#F76031;}
	.st3{fill:#161D21;}
	.st4{fill-rule:evenodd;clip-rule:evenodd;fill:#FFD11D;}
	.st5{fill:#FFD11D;}
	.st6{fill-rule:evenodd;clip-rule:evenodd;fill:#FFFFFF;}
	.st7{fill:#FFFFFF;stroke:#FFFFFF;stroke-miterlimit:10;}
	.st8{fill:#B0B0B0;}
	.st9{fill:url(#SVGID_1_);}
</style>
<g>
	<rect class="st0" width="982.8" height="743.1"/>
</g>
<g>
	<g>
		<circle class="st1" cx="846.5" cy="190.6" r="15.4"/>
		<g>
			<g>
				<path class="st2" d="M882.7,182.9c-1.1-5.2-3.2-9.9-6.2-14l4.4-4.6l-9.8-9.3l-4.4,4.6c-4.2-2.8-9.1-4.7-14.3-5.5l-0.2-6.4
					l-13.5,0.3l0.2,6.4c-1.4,0.3-2.7,0.6-4,1.1c-3.6,1.2-7,2.9-10,5.1l-4.6-4.4L811,166l4.6,4.4c-2.8,4.2-4.7,9.1-5.5,14.3l-6.4,0.2
					l0.3,13.5l6.4-0.2c1.1,5.2,3.2,9.9,6.2,14l-4.4,4.6l9.8,9.3l4.4-4.6c4.2,2.8,9.1,4.7,14.3,5.5l0.2,6.4l13.5-0.3l-0.2-6.4
					c1.4-0.3,2.7-0.6,4-1.1c3.6-1.2,7-2.9,10-5.1l4.6,4.4l9.3-9.8l-4.6-4.4c2.8-4.3,4.7-9.1,5.5-14.3l6.4-0.2l-0.3-13.5L882.7,182.9
					z M860,190.2c0.1,6-3.7,11.3-9.2,13.1c-1.2,0.4-2.5,0.6-3.9,0.7c-7.4,0.2-13.6-5.7-13.7-13.1c-0.1-6,3.7-11.3,9.2-13.1
					c1.2-0.4,2.5-0.6,3.9-0.7C853.6,177,859.8,182.8,860,190.2z"/>
				<polygon class="st3" points="842.5,197.6 838.4,190.6 842.5,183.6 850.6,183.6 854.6,190.6 850.6,197.6 				"/>
			</g>
		</g>
	</g>
	<g>
		<g>
			<polygon class="st4" points="53,103.5 53,103.7 53,103.7 53,106.1 53,109.1 53,109.1 53,109.8 53,109.8 53,117 53,117 53,117.6 
				53,117.6 53,121 53,121 53,121.9 53,121.9 53,124.3 53,124.7 285.3,124.7 285.3,103.5 			"/>
			<path class="st5" d="M287,126.4H51.3v-24.6H287V126.4z M54.7,122.9h228.9v-17.7H54.7L54.7,122.9z"/>
		</g>
		<g>
			<rect x="255.7" y="103.5" class="st6" width="29.6" height="21.1"/>
			<path class="st5" d="M287,126.4h-33v-24.6h33V126.4z M257.4,122.9h26.2v-17.7h-26.2V122.9z"/>
		</g>
		<rect x="140.9" y="110.5" class="st6" width="30.6" height="7.1"/>
		<rect x="104.3" y="110.5" class="st6" width="30.6" height="7.1"/>
		<rect x="67.7" y="110.5" class="st6" width="30.6" height="7.1"/>
	</g>
	<g>
		<g>
			<path class="st1" d="M232.4,296.4h-181V180.2h181V296.4z"/>
		</g>
		<g>
			<rect x="58" y="187.2" class="st2" width="167.7" height="88.8"/>
		</g>
		<g>
			<rect x="58" y="283.5" class="st3" width="167.7" height="7.7"/>
		</g>
		<g>
			<g>
				<path class="st0" d="M142,258.7c-14,0-25.4-11.4-25.4-25.4c0-14,11.4-25.4,25.4-25.4c14,0,25.4,11.4,25.4,25.4
					C167.4,247.3,156,258.7,142,258.7z M142,209.4c-13.2,0-23.9,10.7-23.9,23.9c0,13.2,10.7,23.9,23.9,23.9
					c13.2,0,23.9-10.7,23.9-23.9C165.8,220.1,155.1,209.4,142,209.4z"/>
			</g>
			<polygon class="st7" points="159.5,233.3 146.1,241 132.7,248.7 132.7,233.3 132.7,217.9 146.1,225.6 			"/>
		</g>
		<path class="st0" d="M96.7,287.4c0,2.1-1.7,3.9-3.9,3.9H79.6c-2.1,0-3.9-1.7-3.9-3.9l0,0c0-2.1,1.7-3.9,3.9-3.9h13.2
			C94.9,283.5,96.7,285.2,96.7,287.4L96.7,287.4z"/>
	</g>
	<g>
		<g>
			<g>
				<g>
					<path class="st8" d="M172.6,550.4c0,0-4.2,7.8,25.7,14.4H824c0,0,20.9-1.3,26.4-11.2l0-5.4L172.6,550.4z"/>
					<path class="st1" d="M172.7,534.6h678V552c0,0,1,2.3-7,1.7H179.1c0,0-6.2,1.8-6.8-2.3L172.7,534.6z"/>
					<path class="st8" d="M819.2,544.7c0,0.7-0.4,1.2-1,1.2h-23.1c-0.6,0-1-0.5-1-1.2l0,0c0-0.7,0.4-1.2,1-1.2h23.1
						C818.8,543.5,819.2,544,819.2,544.7L819.2,544.7z"/>
				</g>
				<path class="st8" d="M465.7,534.7c0,0-2.6,8.7,6.1,9.6h78.7c0,0,8.4,1.1,7.3-9.3L465.7,534.7z"/>
				<g>
					<linearGradient id="SVGID_1_" gradientUnits="userSpaceOnUse" x1="557.2631" y1="535.1735" x2="557.2631" y2="534.9675">
						<stop  offset="2.439020e-02" style="stop-color:#5F6767"/>
						<stop  offset="0.4756" style="stop-color:#676B6C"/>
						<stop  offset="0.5137" style="stop-color:#717576"/>
						<stop  offset="0.6192" style="stop-color:#878A8B"/>
						<stop  offset="0.7202" style="stop-color:#949899"/>
						<stop  offset="0.811" style="stop-color:#999C9D"/>
					</linearGradient>
					<path class="st9" d="M557.3,535.2V535h0C557.3,535,557.3,535.1,557.3,535.2z"/>
				</g>
			</g>
		</g>
		<path class="st3" d="M784.1,534.5v-309c0-14-11.5-25.5-25.5-25.5H264.5c-14,0-25.5,11.5-25.5,25.5v309H784.1z"/>
		<rect x="256.5" y="219.1" class="st1" width="510" height="296.4"/>
	</g>
	<g>
		<g>
			<rect x="469.3" y="591.3" class="st5" width="434.1" height="39.5"/>
			<circle class="st0" cx="877" cy="611" r="9.9"/>
		</g>
		<g>
			<g>
				<g>
					<g>
						<rect x="678.6" y="595.2" class="st0" width="4.7" height="20.2"/>
						<rect x="693.8" y="595.2" class="st0" width="4.7" height="11.5"/>
						<rect x="708.9" y="595.2" class="st0" width="4.7" height="11.5"/>
						<rect x="724" y="595.2" class="st0" width="4.7" height="11.5"/>
					</g>
				</g>
				<g>
					<g>
						<rect x="738.2" y="595.2" class="st0" width="4.7" height="20.2"/>
						<rect x="753.3" y="595.2" class="st0" width="4.7" height="11.5"/>
						<rect x="768.4" y="595.2" class="st0" width="4.7" height="11.5"/>
						<rect x="783.5" y="595.2" class="st0" width="4.7" height="11.5"/>
					</g>
				</g>
				<g>
					<g>
						<rect x="797.7" y="595.2" class="st0" width="4.7" height="20.2"/>
						<rect x="812.8" y="595.2" class="st0" width="4.7" height="11.5"/>
						<rect x="827.9" y="595.2" class="st0" width="4.7" height="11.5"/>
						<rect x="843" y="595.2" class="st0" width="4.7" height="11.5"/>
					</g>
				</g>
			</g>
			<g>
				<g>
					<g>
						<rect x="498.8" y="595.2" class="st0" width="4.7" height="20.2"/>
						<rect x="513.9" y="595.2" class="st0" width="4.7" height="11.5"/>
						<rect x="529.1" y="595.2" class="st0" width="4.7" height="11.5"/>
						<rect x="544.2" y="595.2" class="st0" width="4.7" height="11.5"/>
					</g>
				</g>
				<g>
					<g>
						<rect x="558.4" y="595.2" class="st0" width="4.7" height="20.2"/>
						<rect x="573.5" y="595.2" class="st0" width="4.7" height="11.5"/>
						<rect x="588.6" y="595.2" class="st0" width="4.7" height="11.5"/>
						<rect x="603.7" y="595.2" class="st0" width="4.7" height="11.5"/>
					</g>
				</g>
				<g>
					<g>
						<rect x="617.9" y="595.2" class="st0" width="4.7" height="20.2"/>
						<rect x="633" y="595.2" class="st0" width="4.7" height="11.5"/>
						<rect x="648.1" y="595.2" class="st0" width="4.7" height="11.5"/>
						<rect x="663.2" y="595.2" class="st0" width="4.7" height="11.5"/>
					</g>
				</g>
			</g>
		</g>
	</g>
	<g>
		<path class="st2" d="M311.3,685.8c0,0.6-0.4,1.1-1,1.1h-15.4c-0.5,0-1-0.5-1-1.1v-30.4c0-0.6,0.4-1.1,1-1.1h15.4
			c0.5,0,1,0.5,1,1.1V685.8z"/>
		<path class="st1" d="M315.9,654.4h-5.6v32.5h5.6c0.5,0,1-0.5,1-1.1v-30.4C316.9,654.9,316.4,654.4,315.9,654.4z"/>
		<polygon class="st5" points="559.6,654.4 547.3,654.4 385.3,654.4 358.6,654.4 316.4,654.4 316.4,686.9 358.6,686.9 385.3,686.9 
			547.3,686.9 559.6,686.9 613.2,686.9 613.2,654.4 		"/>
		<polygon class="st3" points="559.6,666.3 547.3,666.3 385.3,666.3 358.6,666.3 316.4,666.3 316.4,675 358.6,675 385.3,675 
			547.3,675 559.6,675 613.2,675 613.2,666.3 		"/>
		<polygon class="st1" points="613.1,687 604.8,670.7 613.1,654.3 651.1,670.7 		"/>
		<polygon class="st3" points="635.3,663.8 635.3,677.5 651.1,670.7 		"/>
	</g>
	<g>
		<rect x="363.2" y="93.8" class="st3" width="296.6" height="397.6"/>
		<rect x="363.2" y="111.6" class="st0" width="296.6" height="33.7"/>
		<rect x="363.2" y="93.8" class="st3" width="296.6" height="29.5"/>
		<rect x="389.6" y="191.4" class="st0" width="112.5" height="7"/>
		<rect x="438.1" y="213.7" class="st0" width="11.5" height="7"/>
		<rect x="459.4" y="213.7" class="st0" width="11.5" height="7"/>
		<rect x="481.2" y="213.7" class="st0" width="11.5" height="7"/>
		<rect x="410.9" y="236.1" class="st5" width="91.1" height="7"/>
		<rect x="438.1" y="258.4" class="st0" width="64" height="7"/>
		<rect x="517.4" y="258.4" class="st2" width="112.5" height="7"/>
		<rect x="517.4" y="236.1" class="st0" width="35.7" height="7"/>
		<rect x="582.6" y="236.1" class="st0" width="35.7" height="7"/>
		<rect x="517.4" y="213.7" class="st0" width="64" height="7"/>
		<g>
			<g>
				<rect x="434.6" y="105.7" class="st0" width="64" height="7"/>
			</g>
			<g>
				<rect x="513.8" y="105.7" class="st0" width="64" height="7"/>
			</g>
		</g>
		<g>
			<g>
				<rect x="434.6" y="131.6" class="st3" width="64" height="7"/>
			</g>
		</g>
		<rect x="389.6" y="287.9" class="st0" width="57.9" height="7"/>
		<rect x="428.8" y="310.2" class="st0" width="22.6" height="7"/>
		<rect x="410.4" y="332.6" class="st5" width="22.2" height="7"/>
		<rect x="414.6" y="354.9" class="st0" width="32.9" height="7"/>
		<rect x="455.3" y="354.9" class="st0" width="57.9" height="7"/>
		<rect x="455.3" y="332.6" class="st5" width="32.9" height="7"/>
		<rect x="465.1" y="310.2" class="st0" width="32.9" height="7"/>
		<g>
			<g>
				<rect x="553.7" y="354.9" class="st0" width="57.9" height="7"/>
				<rect x="553.7" y="332.6" class="st0" width="32.9" height="7"/>
				<rect x="553.7" y="310.2" class="st0" width="32.9" height="7"/>
				<rect x="553.7" y="287.9" class="st0" width="32.9" height="7"/>
			</g>
			<g>
				<rect x="487.9" y="287.9" class="st0" width="57.9" height="7"/>
				<rect x="512.9" y="310.2" class="st2" width="32.9" height="7"/>
				<rect x="512.9" y="332.6" class="st0" width="32.9" height="7"/>
			</g>
		</g>
		<rect x="389.6" y="384.4" class="st0" width="112.5" height="7"/>
		<rect x="438.1" y="406.7" class="st0" width="64" height="7"/>
		<rect x="417.3" y="429" class="st0" width="45.7" height="7"/>
		<rect x="438.1" y="451.4" class="st0" width="64" height="7"/>
		<rect x="517.4" y="451.4" class="st0" width="112.5" height="7"/>
		<rect x="480.9" y="429" class="st0" width="64" height="7"/>
		<rect x="517.4" y="406.7" class="st5" width="64" height="7"/>
	</g>
</g>
</svg>
