<?xml version="1.0" encoding="utf-8"?>
<!-- Generator: Adobe Illustrator 19.2.0, SVG Export Plug-In . SVG Version: 6.00 Build 0)  -->
<svg version="1.1" id="Warstwa_1" xmlns="http://www.w3.org/2000/svg" xmlns:xlink="http://www.w3.org/1999/xlink" x="0px" y="0px"
	 viewBox="0 0 388.5 325.5" style="enable-background:new 0 0 388.5 325.5;" xml:space="preserve">
<style type="text/css">
	.st0{fill:#08080A;}
	.st1{fill:#FFFFFF;}
	.st2{enable-background:new    ;}
</style>
<g id="Grupa_1_1_">
	<g id="Prostokąt_1_kopia_51">
		<g>
			<rect x="90.1" y="242.4" class="st0" width="11.8" height="6.2"/>
		</g>
	</g>
	<g id="Prostokąt_1_kopia_52">
		<g>
			<rect x="107.7" y="242.4" class="st0" width="11.8" height="6.3"/>
		</g>
	</g>
	<g id="Prostokąt_1_kopia_53">
		<g>
			<rect x="125.2" y="242.4" class="st0" width="11.8" height="6.3"/>
		</g>
	</g>
	<g id="Prostokąt_1_kopia_54">
		<g>
			<rect x="142.7" y="242.4" class="st0" width="11.8" height="6.3"/>
		</g>
	</g>
	<g id="Prostokąt_1_kopia_55">
		<g>
			<rect x="160.1" y="242.4" class="st0" width="11.8" height="6.3"/>
		</g>
	</g>
	<g id="Prostokąt_1_kopia_56">
		<g>
			<rect x="177.8" y="242.4" class="st0" width="11.8" height="6.3"/>
		</g>
	</g>
	<g id="Prostokąt_1_kopia_57">
		<g>
			<rect x="195.4" y="242.4" class="st0" width="11.8" height="6.3"/>
		</g>
	</g>
	<g id="Prostokąt_1_kopia_58">
		<g>
			<rect x="212.9" y="242.4" class="st0" width="11.8" height="6.3"/>
		</g>
	</g>
	<g id="Prostokąt_1_kopia_59">
		<g>
			<rect x="230.3" y="242.4" class="st0" width="11.8" height="6.3"/>
		</g>
	</g>
	<g id="Prostokąt_1_kopia_60">
		<g>
			<rect x="247.8" y="242.4" class="st0" width="11.8" height="6.3"/>
		</g>
	</g>
	<g id="Prostokąt_1_kopia_75">
		<g>
			<rect x="288.3" y="266.9" class="st0" width="11.8" height="6.3"/>
		</g>
	</g>
	<g id="Prostokąt_1_kopia_76">
		<g>
			<rect x="259.6" y="254.5" class="st0" width="11.8" height="6.3"/>
		</g>
	</g>
	<g id="Prostokąt_1_kopia_77">
		<g>
			<rect x="265.6" y="242.4" class="st0" width="11.8" height="6.3"/>
		</g>
	</g>
	<g id="Prostokąt_1_kopia_62">
		<g>
			<rect x="83.8" y="254.9" class="st0" width="11.8" height="6.3"/>
		</g>
	</g>
	<g id="Prostokąt_1_kopia_63">
		<g>
			<rect x="100.7" y="254.5" class="st0" width="11.8" height="6.3"/>
		</g>
	</g>
	<g id="Prostokąt_1_kopia_64">
		<g>
			<rect x="117.6" y="254.8" class="st0" width="11.8" height="6.3"/>
		</g>
	</g>
	<g id="Prostokąt_1_kopia_65">
		<g>
			<rect x="136.3" y="254.5" class="st0" width="11.8" height="6.3"/>
		</g>
	</g>
	<g id="Prostokąt_1_kopia_66">
		<g>
			<rect x="153.5" y="254.5" class="st0" width="11.8" height="6.3"/>
		</g>
	</g>
	<g id="Prostokąt_1_kopia_67">
		<g>
			<rect x="171" y="254.8" class="st0" width="11.8" height="6.3"/>
		</g>
	</g>
	<g id="Prostokąt_1_kopia_68">
		<g>
			<rect x="188.5" y="254.8" class="st0" width="11.8" height="6.3"/>
		</g>
	</g>
	<g id="Prostokąt_1_kopia_69">
		<g>
			<rect x="207" y="254.8" class="st0" width="11.8" height="6.3"/>
		</g>
	</g>
	<g id="Prostokąt_1_kopia_70">
		<g>
			<rect x="224.3" y="254.8" class="st0" width="11.8" height="6.3"/>
		</g>
	</g>
	<g id="Prostokąt_1_kopia_71">
		<g>
			<rect x="242" y="254.4" class="st0" width="11.8" height="6.3"/>
		</g>
	</g>
	<g id="Prostokąt_1_kopia_44">
		<g>
			<rect x="218.9" y="266.9" class="st0" width="11.8" height="6.3"/>
		</g>
	</g>
	<g id="Prostokąt_1_kopia_45">
		<g>
			<rect x="236.3" y="266.9" class="st0" width="11.8" height="6.3"/>
		</g>
	</g>
	<g id="Prostokąt_1_kopia_46">
		<g>
			<rect x="253.9" y="266.9" class="st0" width="11.8" height="6.3"/>
		</g>
	</g>
	<g id="Prostokąt_1_kopia_47">
		<g>
			<rect x="271.1" y="266.9" class="st0" width="11.8" height="6.3"/>
		</g>
	</g>
	<g id="Prostokąt_1_kopia_50">
		<g>
			<rect x="276.9" y="254.9" class="st0" width="17.3" height="6.3"/>
		</g>
	</g>
	<g id="Prostokąt_1_kopia_72">
		<g>
			<rect x="282.4" y="248.7" class="st0" width="11.8" height="6.3"/>
		</g>
	</g>
	<g id="Prostokąt_1_kopia_48">
		<g>
			<rect x="107.7" y="267.1" class="st0" width="11.8" height="6.3"/>
		</g>
	</g>
	<g id="Prostokąt_1_kopia_49">
		<g>
			<rect x="78.7" y="267.2" class="st0" width="23.4" height="6.3"/>
		</g>
	</g>
	<g id="Prostokąt_1_kopia_2">
		<g>
			<rect x="14.6" y="292" class="st0" width="5.8" height="6.3"/>
		</g>
	</g>
	<g id="Prostokąt_1_kopia_6">
		<g>
			<rect x="370.6" y="285.9" class="st0" width="5.8" height="6.3"/>
		</g>
	</g>
	<g id="Prostokąt_1_kopia_12">
		<g>
			<rect x="364.9" y="291.8" class="st0" width="5.8" height="6.3"/>
		</g>
	</g>
	<g id="Prostokąt_1_kopia_61">
		<g>
			<rect x="359" y="297.8" class="st0" width="5.8" height="6.3"/>
		</g>
	</g>
	<g id="Prostokąt_1_kopia_73">
		<g>
			<rect x="26.3" y="304.4" class="st0" width="332.8" height="6.1"/>
		</g>
	</g>
	<g id="Warstwa_1_xA0_Obraz_1_">
		
			<image style="overflow:visible;enable-background:new    ;" width="4" height="4" id="Warstwa_1_xA0_Obraz" xlink:href="66CC2FD7BD36D9ED.png"  transform="matrix(4.943258e-02 0 0 5.224811e-02 119.5158 69.707)">
		</image>
	</g>
	<g id="Prostokąt_1_kopia_7">
		<g>
			<rect x="20.4" y="298.3" class="st0" width="5.8" height="6.2"/>
		</g>
	</g>
	<g id="Prostokąt_1_kopia_18">
		<g>
			<rect x="96.3" y="57.3" class="st0" width="5.8" height="6.3"/>
		</g>
	</g>
	<g id="Prostokąt_1_kopia_26">
		<g>
			<rect x="271.7" y="57.6" class="st0" width="5.8" height="6.3"/>
		</g>
	</g>
	<g id="Prostokąt_1_kopia_19">
		<g>
			<rect x="102.1" y="51.4" class="st0" width="5.8" height="6.3"/>
		</g>
	</g>
	<g id="Prostokąt_1_kopia_25">
		<g>
			<rect x="108.1" y="45.2" class="st0" width="157.7" height="6.3"/>
		</g>
	</g>
	<g id="Prostokąt_1_kopia_23">
		<g>
			<rect x="90.4" y="63.5" class="st0" width="5.8" height="117.3"/>
		</g>
	</g>
	<g id="Prostokąt_1_kopia_27">
		<g>
			<rect x="276.9" y="62.9" class="st0" width="5.8" height="118"/>
		</g>
	</g>
	<g id="Prostokąt_1_kopia_24">
		<g>
			<rect x="265.5" y="51.3" class="st0" width="5.8" height="6.3"/>
		</g>
	</g>
	<g id="Prostokąt_1_kopia_20">
		<g>
			<rect x="271.7" y="181" class="st0" width="5.8" height="6.3"/>
		</g>
	</g>
	<g id="Prostokąt_1_kopia_81">
		<g>
			<rect x="271.4" y="187.3" class="st1" width="6.1" height="6.3"/>
		</g>
	</g>
	<g id="Prostokąt_1_kopia_22">
		<g>
			<rect x="96.2" y="180.9" class="st0" width="5.8" height="6.3"/>
		</g>
	</g>
	<g id="Prostokąt_1_kopia_39">
		<g>
			<rect x="96.2" y="187.1" class="st1" width="6.2" height="6.3"/>
		</g>
	</g>
	<g id="Prostokąt_1_kopia_78">
		<g>
			<rect x="95.9" y="51.1" class="st1" width="6.2" height="6.3"/>
		</g>
	</g>
	<g id="Prostokąt_1_kopia_80">
		<g>
			<rect x="271.6" y="51.3" class="st1" width="6.2" height="6.3"/>
		</g>
	</g>
	<g id="Prostokąt_1_kopia_30">
		<g>
			<rect x="49.6" y="230.2" class="st0" width="5.8" height="6.3"/>
		</g>
	</g>
	<g id="Prostokąt_1_kopia_31">
		<g>
			<rect x="43.8" y="236.5" class="st0" width="5.8" height="6.3"/>
		</g>
	</g>
	<g id="Prostokąt_1_kopia_32">
		<g>
			<rect x="38" y="242.7" class="st0" width="5.8" height="6.2"/>
		</g>
	</g>
	<g id="Prostokąt_1_kopia_33">
		<g>
			<rect x="32.1" y="248.8" class="st0" width="5.8" height="6.3"/>
		</g>
	</g>
	<g id="Prostokąt_1_kopia_38">
		<g>
			<rect x="26.3" y="255" class="st0" width="5.8" height="6.3"/>
		</g>
	</g>
	<g id="Prostokąt_1_kopia_84">
		<g>
			<rect x="20.4" y="261.2" class="st0" width="5.8" height="6.3"/>
		</g>
	</g>
	<g id="Prostokąt_1_kopia_85">
		<g>
			<rect x="14.6" y="267.3" class="st0" width="5.8" height="6.3"/>
		</g>
	</g>
	<g id="Prostokąt_1_kopia_86">
		<g>
			<rect x="8.8" y="273.6" class="st0" width="5.8" height="6.3"/>
		</g>
	</g>
	<g id="Prostokąt_1_kopia_34">
		<g>
			<rect x="329.3" y="230.3" class="st0" width="5.8" height="6.3"/>
		</g>
	</g>
	<g id="Prostokąt_1_kopia_35">
		<g>
			<rect x="335.7" y="236.5" class="st0" width="5.8" height="6.3"/>
		</g>
	</g>
	<g id="Prostokąt_1_kopia_36">
		<g>
			<rect x="341.6" y="242.7" class="st0" width="5.8" height="6.3"/>
		</g>
	</g>
	<g id="Prostokąt_1_kopia_37">
		<g>
			<rect x="347.4" y="248.7" class="st0" width="5.8" height="6.3"/>
		</g>
	</g>
	<g id="Prostokąt_1_kopia_40">
		<g>
			<rect x="353.2" y="255" class="st0" width="5.8" height="6.3"/>
		</g>
	</g>
	<g id="Prostokąt_1_kopia_41">
		<g>
			<rect x="359.1" y="260.9" class="st0" width="5.8" height="6.1"/>
		</g>
	</g>
	<g id="Prostokąt_1_kopia_28">
		<g>
			<rect x="265.6" y="187.3" class="st0" width="5.8" height="6.3"/>
		</g>
	</g>
	<g id="Prostokąt_1_kopia_29">
		<g>
			<rect x="107.9" y="193.2" class="st0" width="157.7" height="6.3"/>
		</g>
	</g>
	<g id="Prostokąt_1_kopia_42">
		<g>
			<rect x="125" y="266.9" class="st0" width="87.8" height="6.3"/>
		</g>
	</g>
	<g id="Prostokąt_1_kopia_21">
		<g>
			<rect x="102.2" y="187.1" class="st0" width="5.8" height="6.3"/>
		</g>
	</g>
	<g id="Prostokąt_1_kopia_16">
		<g>
			<rect x="364.8" y="267.1" class="st0" width="5.8" height="6.2"/>
		</g>
	</g>
	<g id="Prostokąt_1_kopia_43">
		<g>
			<rect x="370.6" y="273.3" class="st0" width="5.8" height="6"/>
		</g>
	</g>
	<g id="Prostokąt_1_kopia_5">
		<g>
			<rect x="8.8" y="285.9" class="st0" width="5.8" height="6.1"/>
		</g>
	</g>
	<g id="Prostokąt_1_kopia_4">
		<g>
			<rect x="306.5" y="38.4" class="st0" width="11.8" height="6.3"/>
		</g>
	</g>
	<g id="Prostokąt_1_kopia_74">
		<g>
			<rect x="306.5" y="199.2" class="st0" width="11.8" height="12.3"/>
		</g>
	</g>
	<g id="Prostokąt_1_kopia_14">
		<g>
			<rect x="78.7" y="32.3" class="st0" width="5.9" height="178.4"/>
		</g>
	</g>
	<g id="Prostokąt_1_kopia_15">
		<g>
			<rect x="289.1" y="32.3" class="st0" width="5.9" height="176.2"/>
		</g>
	</g>
	<g id="Prostokąt_1_kopia_13">
		<g>
			<rect x="325" y="16.1" class="st0" width="2.6" height="212.6"/>
		</g>
		<g>
			<polygon points="329.3,14.3 323.4,14.3 323.4,230.4 329.3,230.4 			"/>
		</g>
	</g>
	<g id="Prostokąt_1_kopia_17">
		<g>
			<rect x="55.3" y="14.2" class="st0" width="6" height="216.1"/>
		</g>
	</g>
	<g id="Prostokąt_1_kopia_8">
		<g>
			<rect x="59.8" y="14.2" class="st0" width="269.5" height="6.2"/>
		</g>
	</g>
	<g id="Prostokąt_1_kopia_10">
		<g>
			<rect x="78.8" y="205.3" class="st0" width="216.2" height="6.2"/>
		</g>
	</g>
	<g id="Prostokąt_1_kopia_11">
		<g>
			<rect x="8.8" y="279.3" class="st0" width="367.7" height="6.4"/>
		</g>
	</g>
	<g id="Prostokąt_1_kopia_9">
		<g>
			<rect x="79.1" y="32.3" class="st0" width="212.8" height="6.1"/>
		</g>
	</g>
</g>
<g id="Prostokąt_7_1_" class="st2">
	<g id="Prostokąt_7">
		<g>
			<rect x="58.6" y="224.9" class="st0" width="269.8" height="4.4"/>
		</g>
		<g>
			<path d="M327.7,225.8v2.7H59.5v-2.7H327.7 M329.3,224.1H57.8v6.2h271.5V224.1L329.3,224.1z"/>
		</g>
	</g>
</g>
</svg>
